<svg width="78" height="78" viewBox="0 0 78 78" fill="none" xmlns="http://www.w3.org/2000/svg">
<rect width="78" height="78" rx="39" fill="#FEF1E6"/>
<path d="M57 38V32.6C57 29.2397 57 27.5595 56.346 26.2761C55.7708 25.1471 54.8529 24.2292 53.7239 23.654C52.4405 23 50.7603 23 47.4 23H30.6C27.2397 23 25.5595 23 24.2761 23.654C23.1471 24.2292 22.2292 25.1471 21.654 26.2761C21 27.5595 21 29.2397 21 32.6V49.4C21 52.7603 21 54.4405 21.654 55.7239C22.2292 56.8529 23.1471 57.7708 24.2761 58.346C25.5595 59 27.2397 59 30.6 59H40M57 35H21M47 19V27M31 19V27M51 57V45M45 51H57" stroke="#FF902A" stroke-width="3.5" stroke-linecap="round" stroke-linejoin="round"/>
</svg>
