<svg width="20" height="20" viewBox="0 0 20 20" fill="none" xmlns="http://www.w3.org/2000/svg">
<g clip-path="url(#clip0_633_32959)">
<path d="M3.10707 18.7127L3.33407 18.2672L3.10707 18.7127ZM1.28617 16.8918L1.73167 16.6648L1.28617 16.8918ZM15.3779 16.8918L14.9324 16.6648L15.3779 16.8918ZM13.557 18.7127L13.33 18.2672L13.557 18.7127ZM13.557 4.62097L13.33 5.06647L13.557 4.62097ZM15.3779 6.44187L14.9324 6.66886L15.3779 6.44187ZM3.10707 4.62097L3.33407 5.06647L3.10707 4.62097ZM1.28617 6.44187L1.73167 6.66886L1.28617 6.44187ZM15.832 15.3335C15.5559 15.3335 15.332 15.5574 15.332 15.8335C15.332 16.1096 15.5559 16.3335 15.832 16.3335V15.3335ZM3.66536 4.16683C3.66536 4.44297 3.88922 4.66683 4.16536 4.66683C4.44151 4.66683 4.66536 4.44297 4.66536 4.16683H3.66536ZM4.65295 13.8056C4.45347 13.9966 4.44656 14.3131 4.63751 14.5126C4.82846 14.7121 5.14497 14.719 5.34445 14.528L4.65295 13.8056ZM11.3196 14.528C11.5191 14.719 11.8356 14.7121 12.0266 14.5126C12.2175 14.3131 12.2106 13.9966 12.0111 13.8056L11.3196 14.528ZM7.4987 4.66683H9.16537V3.66683H7.4987V4.66683ZM15.332 10.8335V12.5002H16.332V10.8335H15.332ZM9.16537 18.6668H7.4987V19.6668H9.16537V18.6668ZM1.33203 12.5002V10.8335H0.332031V12.5002H1.33203ZM7.4987 18.6668C6.32367 18.6668 5.47247 18.6664 4.80276 18.6117C4.13888 18.5575 3.69748 18.4524 3.33407 18.2672L2.88008 19.1582C3.40796 19.4272 3.9956 19.5491 4.72132 19.6084C5.44121 19.6672 6.34017 19.6668 7.4987 19.6668V18.6668ZM0.332031 12.5002C0.332031 13.6587 0.331642 14.5577 0.390459 15.2775C0.449753 16.0033 0.571697 16.5909 0.840668 17.1188L1.73167 16.6648C1.5465 16.3014 1.44138 15.86 1.38714 15.1961C1.33242 14.5264 1.33203 13.6752 1.33203 12.5002H0.332031ZM3.33407 18.2672C2.64414 17.9157 2.08321 17.3547 1.73167 16.6648L0.840668 17.1188C1.28808 17.9969 2.00199 18.7108 2.88008 19.1582L3.33407 18.2672ZM15.332 12.5002C15.332 13.6752 15.3316 14.5264 15.2769 15.1961C15.2227 15.86 15.1176 16.3014 14.9324 16.6648L15.8234 17.1188C16.0924 16.5909 16.2143 16.0033 16.2736 15.2775C16.3324 14.5577 16.332 13.6587 16.332 12.5002H15.332ZM9.16537 19.6668C10.3239 19.6668 11.2229 19.6672 11.9427 19.6084C12.6685 19.5491 13.2561 19.4272 13.784 19.1582L13.33 18.2672C12.9666 18.4524 12.5252 18.5575 11.8613 18.6117C11.1916 18.6664 10.3404 18.6668 9.16537 18.6668V19.6668ZM14.9324 16.6648C14.5809 17.3547 14.0199 17.9157 13.33 18.2672L13.784 19.1582C14.6621 18.7108 15.376 17.9969 15.8234 17.1188L14.9324 16.6648ZM9.16537 4.66683C10.3404 4.66683 11.1916 4.66722 11.8613 4.72194C12.5252 4.77618 12.9666 4.8813 13.33 5.06647L13.784 4.17547C13.2561 3.9065 12.6685 3.78455 11.9427 3.72526C11.2229 3.66644 10.3239 3.66683 9.16537 3.66683V4.66683ZM16.332 10.8335C16.332 9.67497 16.3324 8.77601 16.2736 8.05612C16.2143 7.3304 16.0924 6.74276 15.8234 6.21487L14.9324 6.66886C15.1176 7.03228 15.2227 7.47367 15.2769 8.13755C15.3316 8.80727 15.332 9.65847 15.332 10.8335H16.332ZM13.33 5.06647C14.0199 5.41801 14.5809 5.97894 14.9324 6.66886L15.8234 6.21487C15.376 5.33678 14.6621 4.62288 13.784 4.17547L13.33 5.06647ZM7.4987 3.66683C6.34017 3.66683 5.44121 3.66644 4.72132 3.72526C3.9956 3.78455 3.40796 3.9065 2.88008 4.17547L3.33407 5.06647C3.69748 4.8813 4.13888 4.77618 4.80276 4.72194C5.47247 4.66722 6.32367 4.66683 7.4987 4.66683V3.66683ZM1.33203 10.8335C1.33203 9.65847 1.33242 8.80727 1.38714 8.13755C1.44138 7.47367 1.5465 7.03228 1.73167 6.66886L0.840668 6.21487C0.571697 6.74276 0.449753 7.3304 0.390459 8.05612C0.331642 8.77601 0.332031 9.67497 0.332031 10.8335H1.33203ZM2.88008 4.17547C2.00199 4.62287 1.28808 5.33678 0.840668 6.21487L1.73167 6.66886C2.08321 5.97894 2.64414 5.41801 3.33407 5.06647L2.88008 4.17547ZM7.4987 1.3335H14.9987V0.333496H7.4987V1.3335ZM18.6654 5.00016V12.5002H19.6654V5.00016H18.6654ZM18.6654 12.5002C18.6654 14.065 17.3968 15.3335 15.832 15.3335V16.3335C17.9491 16.3335 19.6654 14.6173 19.6654 12.5002H18.6654ZM14.9987 1.3335C17.0237 1.3335 18.6654 2.97512 18.6654 5.00016H19.6654C19.6654 2.42283 17.576 0.333496 14.9987 0.333496V1.3335ZM7.4987 0.333496C5.38161 0.333496 3.66536 2.04974 3.66536 4.16683H4.66536C4.66536 2.60202 5.93389 1.3335 7.4987 1.3335V0.333496ZM5.34445 14.528C6.99205 12.9508 9.67201 12.9508 11.3196 14.528L12.0111 13.8056C9.97682 11.8583 6.68724 11.8583 4.65295 13.8056L5.34445 14.528ZM10.0679 10.4476C10.0679 11.3186 9.32376 12.0616 8.35938 12.0616V13.0616C9.83442 13.0616 11.0679 11.9116 11.0679 10.4476H10.0679ZM8.35938 12.0616C7.395 12.0616 6.6509 11.3186 6.6509 10.4476H5.6509C5.6509 11.9116 6.88434 13.0616 8.35938 13.0616V12.0616ZM6.6509 10.4476C6.6509 9.5765 7.395 8.8335 8.35938 8.8335V7.8335C6.88434 7.8335 5.6509 8.9835 5.6509 10.4476H6.6509ZM8.35938 8.8335C9.32376 8.8335 10.0679 9.5765 10.0679 10.4476H11.0679C11.0679 8.9835 9.83442 7.8335 8.35938 7.8335V8.8335Z" fill="#424242"/>
</g>
<defs>
<clipPath id="clip0_633_32959">
<rect width="20" height="20" fill="white"/>
</clipPath>
</defs>
</svg>
