<svg width="20" height="20" viewBox="0 0 20 20" fill="none" xmlns="http://www.w3.org/2000/svg">
<g clip-path="url(#clip0_633_32932)">
<path d="M2.36328 7.56917C2.36328 5.95132 2.36328 5.14239 2.62759 4.5043C2.98 3.65351 3.65595 2.97756 4.50674 2.62515C5.14484 2.36084 5.95376 2.36084 7.57161 2.36084C7.89519 2.36084 8.05697 2.36084 8.18459 2.4137C8.35475 2.48418 8.48994 2.61937 8.56042 2.78953C8.61328 2.91715 8.61328 3.07894 8.61328 3.40251V8.05528C8.61328 8.24975 8.61328 8.34698 8.57544 8.42125C8.54215 8.48659 8.48903 8.53971 8.4237 8.573C8.34942 8.61084 8.25219 8.61084 8.05773 8.61084H3.40495C3.08138 8.61084 2.91959 8.61084 2.79197 8.55798C2.62181 8.4875 2.48662 8.35231 2.41614 8.18215C2.36328 8.05453 2.36328 7.89274 2.36328 7.56917Z" stroke="#040404"/>
<path d="M2.36328 12.4303C2.36328 12.1067 2.36328 11.9449 2.41614 11.8173C2.48662 11.6472 2.62181 11.512 2.79197 11.4415C2.91959 11.3886 3.08138 11.3886 3.40495 11.3886H8.05773C8.25219 11.3886 8.34942 11.3886 8.4237 11.4265C8.48903 11.4598 8.54215 11.5129 8.57544 11.5782C8.61328 11.6525 8.61328 11.7497 8.61328 11.9442V16.597C8.61328 16.9205 8.61328 17.0823 8.56042 17.2099C8.48994 17.3801 8.35475 17.5153 8.18459 17.5858C8.05697 17.6386 7.89519 17.6386 7.57161 17.6386C5.95376 17.6386 5.14484 17.6386 4.50674 17.3743C3.65595 17.0219 2.98 16.3459 2.62759 15.4952C2.36328 14.8571 2.36328 14.0481 2.36328 12.4303Z" stroke="#040404"/>
<path d="M11.3911 3.40251C11.3911 3.07894 11.3911 2.91715 11.4439 2.78953C11.5144 2.61937 11.6496 2.48418 11.8198 2.4137C11.9474 2.36084 12.1092 2.36084 12.4327 2.36084C14.0506 2.36084 14.8595 2.36084 15.4976 2.62515C16.3484 2.97756 17.0243 3.65351 17.3768 4.5043C17.6411 5.14239 17.6411 5.95132 17.6411 7.56917C17.6411 7.89274 17.6411 8.05453 17.5882 8.18215C17.5177 8.35231 17.3825 8.4875 17.2124 8.55798C17.0847 8.61084 16.923 8.61084 16.5994 8.61084H11.9466C11.7522 8.61084 11.6549 8.61084 11.5806 8.573C11.5153 8.53971 11.4622 8.48659 11.4289 8.42125C11.3911 8.34698 11.3911 8.24975 11.3911 8.05528V3.40251Z" stroke="#040404"/>
<path d="M11.3911 11.9442C11.3911 11.7497 11.3911 11.6525 11.4289 11.5782C11.4622 11.5129 11.5153 11.4598 11.5806 11.4265C11.6549 11.3886 11.7522 11.3886 11.9466 11.3886H16.5994C16.923 11.3886 17.0847 11.3886 17.2124 11.4415C17.3825 11.512 17.5177 11.6472 17.5882 11.8173C17.6411 11.9449 17.6411 12.1067 17.6411 12.4303C17.6411 14.0481 17.6411 14.8571 17.3768 15.4952C17.0243 16.3459 16.3484 17.0219 15.4976 17.3743C14.8595 17.6386 14.0506 17.6386 12.4327 17.6386C12.1092 17.6386 11.9474 17.6386 11.8198 17.5858C11.6496 17.5153 11.5144 17.3801 11.4439 17.2099C11.3911 17.0823 11.3911 16.9205 11.3911 16.597V11.9442Z" stroke="#040404"/>
</g>
<defs>
<clipPath id="clip0_633_32932">
<rect width="16.6667" height="16.6667" fill="white" transform="translate(1.66797 1.6665)"/>
</clipPath>
</defs>
</svg>
