<svg width="16" height="16" viewBox="0 0 16 16" fill="none"
    xmlns="http://www.w3.org/2000/svg">
    <path d="M2 6.66667H14M6 3.33333H4.13333C3.3866 3.33333 3.01323 3.33333 2.72801 3.47866C2.47713 3.60649 2.27316 3.81046 2.14532 4.06135C2 4.34656 2 4.71993 2 5.46667V11.8667C2 12.6134 2 12.9868 2.14532 13.272C2.27316 13.5229 2.47713 13.7268 2.72801 13.8547C3.01323 14 3.3866 14 4.13333 14H11.8667C12.6134 14 12.9868 14 13.272 13.8547C13.5229 13.7268 13.7268 13.5229 13.8547 13.272C14 12.9868 14 12.6134 14 11.8667V5.46667C14 4.71993 14 4.34656 13.8547 4.06135C13.7268 3.81046 13.5229 3.60649 13.272 3.47866C12.9868 3.33333 12.6134 3.33333 11.8667 3.33333H10M6 3.33333H10M6 3.33333V3C6 2.44772 5.55228 2 5 2C4.44772 2 4 2.44772 4 3V3.33333M10 3.33333V3C10 2.44772 10.4477 2 11 2C11.5523 2 12 2.44772 12 3V3.33333" stroke="#040404" stroke-width="1.5" stroke-linecap="round"/>
</svg>
