<svg width="32" height="32" viewBox="0 0 32 32" fill="none" xmlns="http://www.w3.org/2000/svg">
<rect width="32" height="32" rx="8" fill="#FDECEC"/>
<path d="M19.3333 10.9998V10.3332C19.3333 9.39975 19.3333 8.93304 19.1517 8.57652C18.9919 8.26292 18.7369 8.00795 18.4233 7.84816C18.0668 7.6665 17.6001 7.6665 16.6667 7.6665H15.3333C14.3999 7.6665 13.9332 7.6665 13.5767 7.84816C13.2631 8.00795 13.0081 8.26292 12.8483 8.57652C12.6667 8.93304 12.6667 9.39975 12.6667 10.3332V10.9998M14.3333 15.5832V19.7498M17.6667 15.5832V19.7498M8.5 10.9998H23.5M21.8333 10.9998V20.3332C21.8333 21.7333 21.8333 22.4334 21.5608 22.9681C21.3212 23.4386 20.9387 23.821 20.4683 24.0607C19.9335 24.3332 19.2335 24.3332 17.8333 24.3332H14.1667C12.7665 24.3332 12.0665 24.3332 11.5317 24.0607C11.0613 23.821 10.6788 23.4386 10.4392 22.9681C10.1667 22.4334 10.1667 21.7333 10.1667 20.3332V10.9998" stroke="#E46962" stroke-width="1.5" stroke-linecap="round" stroke-linejoin="round"/>
</svg>
