<svg width="32" height="32" viewBox="0 0 32 32" fill="none" xmlns="http://www.w3.org/2000/svg">
<rect x="0.5" y="0.5" width="31" height="31" rx="7.5" fill="white"/>
<rect x="0.5" y="0.5" width="31" height="31" rx="7.5" stroke="#F2EFEB"/>
<path d="M15.0846 14.3333C15.0846 13.9191 14.7488 13.5833 14.3346 13.5833C13.9204 13.5833 13.5846 13.9191 13.5846 14.3333H15.0846ZM13.5846 21C13.5846 21.4142 13.9204 21.75 14.3346 21.75C14.7488 21.75 15.0846 21.4142 15.0846 21H13.5846ZM18.418 14.3333C18.418 13.9191 18.0822 13.5833 17.668 13.5833C17.2538 13.5833 16.918 13.9191 16.918 14.3333H18.418ZM16.918 21C16.918 21.4142 17.2538 21.75 17.668 21.75C18.0822 21.75 18.418 21.4142 18.418 21H16.918ZM11.9113 23.3183L12.2518 22.6501H12.2518L11.9113 23.3183ZM11.183 22.59L11.8512 22.2495H11.8512L11.183 22.59ZM20.8196 22.59L20.1514 22.2495L20.8196 22.59ZM20.0913 23.3183L19.7508 22.6501L19.7508 22.6501L20.0913 23.3183ZM10.168 11.0833C9.75376 11.0833 9.41797 11.4191 9.41797 11.8333C9.41797 12.2475 9.75376 12.5833 10.168 12.5833V11.0833ZM21.8346 12.5833C22.2488 12.5833 22.5846 12.2475 22.5846 11.8333C22.5846 11.4191 22.2488 11.0833 21.8346 11.0833V12.5833ZM12.3346 11.8333C12.3346 12.2475 12.6704 12.5833 13.0846 12.5833C13.4988 12.5833 13.8346 12.2475 13.8346 11.8333H12.3346ZM18.168 11.8333C18.168 12.2475 18.5038 12.5833 18.918 12.5833C19.3322 12.5833 19.668 12.2475 19.668 11.8333H18.168ZM13.5846 14.3333V21H15.0846V14.3333H13.5846ZM16.918 14.3333V21H18.418V14.3333H16.918ZM20.2513 11.8333V20.8333H21.7513V11.8333H20.2513ZM18.3346 22.75H13.668V24.25H18.3346V22.75ZM10.2513 11.8333V20.8333H11.7513V11.8333H10.2513ZM13.668 22.75C13.1889 22.75 12.8747 22.7494 12.6344 22.7298C12.4028 22.7109 12.3067 22.6781 12.2518 22.6501L11.5708 23.9866C11.8724 24.1403 12.1879 24.1983 12.5122 24.2248C12.8278 24.2506 13.2136 24.25 13.668 24.25V22.75ZM10.2513 20.8333C10.2513 21.2877 10.2507 21.6735 10.2765 21.9891C10.303 22.3134 10.361 22.6289 10.5147 22.9305L11.8512 22.2495C11.8232 22.1946 11.7904 22.0985 11.7715 21.8669C11.7519 21.6266 11.7513 21.3124 11.7513 20.8333H10.2513ZM12.2518 22.6501C12.0793 22.5622 11.9391 22.422 11.8512 22.2495L10.5147 22.9305C10.7464 23.3852 11.1161 23.7549 11.5708 23.9866L12.2518 22.6501ZM20.2513 20.8333C20.2513 21.3124 20.2507 21.6266 20.2311 21.8669C20.2122 22.0985 20.1794 22.1946 20.1514 22.2495L21.4879 22.9305C21.6416 22.6289 21.6996 22.3134 21.7261 21.9891C21.7519 21.6735 21.7513 21.2877 21.7513 20.8333H20.2513ZM18.3346 24.25C18.789 24.25 19.1748 24.2506 19.4904 24.2248C19.8147 24.1983 20.1302 24.1403 20.4318 23.9866L19.7508 22.6501C19.6959 22.6781 19.5998 22.7109 19.3682 22.7298C19.1279 22.7494 18.8137 22.75 18.3346 22.75V24.25ZM20.1514 22.2495C20.0635 22.422 19.9233 22.5622 19.7508 22.6501L20.4318 23.9866C20.8865 23.7549 21.2562 23.3852 21.4879 22.9305L20.1514 22.2495ZM10.168 12.5833H11.0013V11.0833H10.168V12.5833ZM11.0013 12.5833H21.0013V11.0833H11.0013V12.5833ZM21.0013 12.5833H21.8346V11.0833H21.0013V12.5833ZM13.8346 11.1667C13.8346 10.17 14.74 9.25 16.0013 9.25V7.75C14.0409 7.75 12.3346 9.21785 12.3346 11.1667H13.8346ZM16.0013 9.25C17.2626 9.25 18.168 10.17 18.168 11.1667H19.668C19.668 9.21785 17.9617 7.75 16.0013 7.75V9.25ZM12.3346 11.1667V11.8333H13.8346V11.1667H12.3346ZM18.168 11.1667V11.8333H19.668V11.1667H18.168Z" fill="#AAAAAA"/>
</svg>
