<svg width="24" height="24" viewBox="0 0 24 24" fill="none" xmlns="http://www.w3.org/2000/svg">
<rect width="24" height="24" rx="12" fill="#B8DEDD"/>
<path d="M13 7.13473V9.2C13 9.48003 13 9.62004 13.0545 9.727C13.1024 9.82108 13.1789 9.89757 13.273 9.9455C13.38 10 13.52 10 13.8 10H15.8653M16 10.9941V14.6C16 15.4401 16 15.8601 15.8365 16.181C15.6927 16.4632 15.4632 16.6927 15.181 16.8365C14.8601 17 14.4401 17 13.6 17H10.4C9.55992 17 9.13988 17 8.81901 16.8365C8.53677 16.6927 8.3073 16.4632 8.16349 16.181C8 15.8601 8 15.4401 8 14.6V9.4C8 8.55992 8 8.13988 8.16349 7.81901C8.3073 7.53677 8.53677 7.3073 8.81901 7.16349C9.13988 7 9.55992 7 10.4 7H12.0059C12.3728 7 12.5562 7 12.7288 7.04145C12.8819 7.07819 13.0282 7.1388 13.1624 7.22104C13.3138 7.3138 13.4435 7.44352 13.7029 7.70294L15.2971 9.29706C15.5565 9.55648 15.6862 9.6862 15.779 9.83757C15.8612 9.97178 15.9218 10.1181 15.9586 10.2712C16 10.4438 16 10.6272 16 10.9941Z" stroke="#1E5B57" stroke-linecap="round" stroke-linejoin="round"/>
</svg>
