<svg width="14" height="13" viewBox="0 0 14 13" fill="none" xmlns="http://www.w3.org/2000/svg">
<path d="M7.5 0.5C7.5 0.223858 7.27614 0 7 0C6.72386 2.98023e-08 6.5 0.223858 6.5 0.5L7.5 0.5ZM6.5 7.83333C6.5 8.10948 6.72386 8.33333 7 8.33333C7.27614 8.33333 7.5 8.10948 7.5 7.83333H6.5ZM10.0202 6.85355C10.2155 6.65829 10.2155 6.34171 10.0202 6.14645C9.82496 5.95118 9.50838 5.95118 9.31311 6.14645L10.0202 6.85355ZM7.4714 8.69526L7.11785 8.34171L7.4714 8.69526ZM6.5286 8.69526L6.88215 8.34171L6.5286 8.69526ZM4.68689 6.14645C4.49162 5.95118 4.17504 5.95118 3.97978 6.14645C3.78452 6.34171 3.78452 6.65829 3.97978 6.85355L4.68689 6.14645ZM1.5 9.16667C1.5 8.89052 1.27614 8.66667 1 8.66667C0.723858 8.66667 0.5 8.89052 0.5 9.16667H1.5ZM13.5 9.16667C13.5 8.89052 13.2761 8.66667 13 8.66667C12.7239 8.66667 12.5 8.89052 12.5 9.16667H13.5ZM11.908 12.282L11.681 11.8365H11.681L11.908 12.282ZM12.782 11.408L13.2275 11.635L12.782 11.408ZM1.21799 11.408L0.772484 11.635L1.21799 11.408ZM2.09202 12.282L1.86502 12.7275H1.86502L2.09202 12.282ZM6.5 0.5L6.5 7.83333H7.5L7.5 0.5L6.5 0.5ZM9.31311 6.14645L7.11785 8.34171L7.82496 9.04882L10.0202 6.85355L9.31311 6.14645ZM6.88215 8.34171L4.68689 6.14645L3.97978 6.85355L6.17504 9.04882L6.88215 8.34171ZM7.11785 8.34171C7.05276 8.4068 6.94724 8.4068 6.88215 8.34171L6.17504 9.04882C6.63065 9.50443 7.36935 9.50443 7.82496 9.04882L7.11785 8.34171ZM0.5 9.16667V9.3H1.5V9.16667H0.5ZM4.2 13H9.8V12H4.2V13ZM13.5 9.3V9.16667H12.5V9.3H13.5ZM9.8 13C10.3518 13 10.7957 13.0004 11.1543 12.9711C11.5187 12.9413 11.8388 12.8784 12.135 12.7275L11.681 11.8365C11.5493 11.9036 11.3755 11.9497 11.0729 11.9744C10.7645 11.9996 10.3683 12 9.8 12V13ZM12.5 9.3C12.5 9.8683 12.4996 10.2645 12.4744 10.5729C12.4497 10.8755 12.4036 11.0493 12.3365 11.181L13.2275 11.635C13.3784 11.3388 13.4413 11.0187 13.4711 10.6543C13.5004 10.2957 13.5 9.8518 13.5 9.3H12.5ZM12.135 12.7275C12.6054 12.4878 12.9878 12.1054 13.2275 11.635L12.3365 11.181C12.1927 11.4632 11.9632 11.6927 11.681 11.8365L12.135 12.7275ZM0.5 9.3C0.5 9.8518 0.499611 10.2957 0.528909 10.6543C0.558684 11.0187 0.62159 11.3388 0.772484 11.635L1.66349 11.181C1.5964 11.0493 1.55031 10.8755 1.52559 10.5729C1.50039 10.2645 1.5 9.8683 1.5 9.3H0.5ZM4.2 12C3.6317 12 3.23554 11.9996 2.92712 11.9744C2.62454 11.9497 2.45069 11.9036 2.31901 11.8365L1.86502 12.7275C2.16117 12.8784 2.48126 12.9413 2.84569 12.9711C3.20428 13.0004 3.6482 13 4.2 13V12ZM0.772484 11.635C1.01217 12.1054 1.39462 12.4878 1.86502 12.7275L2.31901 11.8365C2.03677 11.6927 1.8073 11.4632 1.66349 11.181L0.772484 11.635Z" fill="#2B2B2B"/>
</svg>
