<svg width="32" height="32" viewBox="0 0 32 32" fill="none" xmlns="http://www.w3.org/2000/svg">
<rect x="0.5" y="0.5" width="31" height="31" rx="7.5" fill="white"/>
<rect x="0.5" y="0.5" width="31" height="31" rx="7.5" stroke="#F2EFEB"/>
<path d="M19.4905 10.6062L20.7017 9.39433C20.9542 9.14184 21.2966 9 21.6537 9C22.0108 9 22.3532 9.14184 22.6057 9.39433C22.8582 9.64681 23 9.98925 23 10.3463C23 10.7034 22.8582 11.0458 22.6057 11.2983L12.2896 21.6144C11.91 21.9937 11.442 22.2725 10.9277 22.4256L9 23L9.57435 21.0723C9.72747 20.558 10.0063 20.09 10.3856 19.7104L19.4913 10.6062H19.4905ZM19.4905 10.6062L21.3845 12.5001" stroke="#717171" stroke-linecap="round" stroke-linejoin="round"/>
</svg>
