<svg width="32" height="32" viewBox="0 0 32 32" fill="none" xmlns="http://www.w3.org/2000/svg">
<rect width="32" height="32" rx="8" fill="#FEF1E6"/>
<path d="M20.9987 14.3333L17.6654 10.9999M8.08203 23.9166L10.9023 23.6032C11.2469 23.5649 11.4192 23.5458 11.5802 23.4937C11.7231 23.4474 11.8591 23.3821 11.9844 23.2994C12.1257 23.2062 12.2483 23.0836 12.4935 22.8385L23.4987 11.8333C24.4192 10.9128 24.4192 9.4204 23.4987 8.49993C22.5782 7.57945 21.0859 7.57945 20.1654 8.49992L9.16014 19.5052C8.91499 19.7503 8.79241 19.8729 8.69923 20.0142C8.61656 20.1396 8.55121 20.2755 8.50496 20.4184C8.45283 20.5794 8.43368 20.7517 8.3954 21.0963L8.08203 23.9166Z" stroke="#FFAC5F" stroke-width="1.5" stroke-linecap="round" stroke-linejoin="round"/>
</svg>
