<svg width="33" height="32" viewBox="0 0 33 32" fill="none" xmlns="http://www.w3.org/2000/svg">
<rect x="0.5" width="32" height="32" rx="16" fill="#E7E7E7" fill-opacity="0.6"/>
<path d="M15.9055 8.8778C16.0975 8.48869 16.1936 8.29413 16.3239 8.23197C16.4374 8.17789 16.5692 8.17789 16.6826 8.23197C16.813 8.29413 16.909 8.48869 17.1011 8.8778L18.9233 12.5694C18.98 12.6843 19.0084 12.7418 19.0498 12.7864C19.0865 12.8258 19.1305 12.8578 19.1794 12.8806C19.2345 12.9062 19.2979 12.9155 19.4247 12.934L23.5007 13.5298C23.93 13.5925 24.1446 13.6239 24.2439 13.7287C24.3303 13.82 24.371 13.9453 24.3545 14.0699C24.3356 14.213 24.1802 14.3644 23.8695 14.667L20.9211 17.5387C20.8292 17.6282 20.7833 17.673 20.7536 17.7263C20.7274 17.7734 20.7105 17.8252 20.704 17.8788C20.6967 17.9393 20.7075 18.0025 20.7292 18.129L21.4249 22.1851C21.4983 22.6129 21.535 22.8269 21.466 22.9538C21.406 23.0642 21.2994 23.1417 21.1758 23.1646C21.0338 23.1909 20.8417 23.0899 20.4575 22.8879L16.8136 20.9716C16.7 20.9119 16.6433 20.882 16.5835 20.8703C16.5305 20.8599 16.476 20.8599 16.4231 20.8703C16.3633 20.882 16.3065 20.9119 16.193 20.9716L12.549 22.8879C12.1649 23.0899 11.9728 23.1909 11.8307 23.1646C11.7072 23.1417 11.6005 23.0642 11.5405 22.9538C11.4716 22.8269 11.5083 22.6129 11.5817 22.1851L12.2773 18.129C12.299 18.0025 12.3099 17.9393 12.3025 17.8788C12.296 17.8252 12.2792 17.7734 12.2529 17.7263C12.2233 17.673 12.1773 17.6282 12.0854 17.5387L9.13705 14.667C8.82631 14.3644 8.67093 14.213 8.65203 14.0699C8.63558 13.9453 8.67622 13.82 8.76263 13.7287C8.86195 13.6239 9.07656 13.5925 9.50579 13.5298L13.5818 12.934C13.7086 12.9155 13.772 12.9062 13.8272 12.8806C13.8761 12.8578 13.9201 12.8258 13.9567 12.7864C13.9982 12.7418 14.0265 12.6843 14.0832 12.5694L15.9055 8.8778Z" stroke="#AAAAAA" stroke-width="1.5" stroke-linecap="round" stroke-linejoin="round"/>
</svg>
