<svg width="16" height="15" viewBox="0 0 16 15" fill="none" xmlns="http://www.w3.org/2000/svg">
<path d="M2.42288 4.63231C1.77226 5.4002 1.28779 6.29456 1 7.259C1.89851 10.2758 4.69281 12.4748 8.00035 12.4748C8.69092 12.4748 9.35855 12.3789 9.99141 12.2001M3.98624 3.2449C5.17727 2.45891 6.57335 2.04096 8.00035 2.04317C11.3079 2.04317 14.1015 4.24216 15 7.25761C14.5075 8.90533 13.4505 10.327 12.0145 11.2731M3.98624 3.2449L1.74134 1M3.98624 3.2449L6.52461 5.78327M12.0145 11.2731L14.2594 13.518M12.0145 11.2731L9.47608 8.73474C9.66983 8.54099 9.82352 8.31097 9.92838 8.05782C10.0332 7.80468 10.0872 7.53336 10.0872 7.25935C10.0872 6.98535 10.0332 6.71402 9.92838 6.46088C9.82352 6.20773 9.66983 5.97772 9.47608 5.78396C9.28233 5.59021 9.05232 5.43652 8.79917 5.33167C8.54602 5.22681 8.2747 5.17284 8.0007 5.17284C7.72669 5.17284 7.45537 5.22681 7.20222 5.33167C6.94907 5.43652 6.71906 5.59021 6.52531 5.78396M9.47539 8.73404L6.526 5.78466" stroke="#AAAAAA" stroke-linecap="round" stroke-linejoin="round"/>
</svg>
