<svg width="21" height="20" viewBox="0 0 21 20" fill="none" xmlns="http://www.w3.org/2000/svg">
<path d="M20.1637 10.2319C20.1637 9.50093 20.098 8.80149 19.9761 8.12891H10.5391V11.9823L15.974 11.9834C15.7536 13.2655 15.0442 14.3585 13.9572 15.0871V17.5871H17.1923C19.0814 15.8461 20.1637 13.2725 20.1637 10.2319Z" fill="#4285F4"/>
<path d="M13.9587 15.0833C13.0582 15.6882 11.8985 16.042 10.5418 16.042C7.92106 16.042 5.69783 14.2835 4.90164 11.9131H1.56445V14.4913C3.2178 17.7585 6.61597 20.0005 10.5418 20.0005C13.2552 20.0005 15.5347 19.1118 17.1939 17.5822L13.9587 15.0833Z" fill="#34A853"/>
<path d="M4.59116 10.0011C4.59116 9.33552 4.70256 8.69213 4.90542 8.08728V5.50903H1.56823C0.884608 6.86004 0.5 8.38503 0.5 10.0011C0.5 11.6172 0.88578 13.1422 1.56823 14.4932L4.90542 11.9149C4.70256 11.3101 4.59116 10.6667 4.59116 10.0011Z" fill="#FABB05"/>
<path d="M10.5418 3.95844C12.0228 3.95844 13.349 4.46638 14.3961 5.45891L17.2631 2.60626C15.5218 0.991362 13.2517 0 10.5418 0C6.61714 0 3.2178 2.24195 1.56445 5.50912L4.90164 8.08736C5.69783 5.71697 7.92106 3.95844 10.5418 3.95844Z" fill="#E94235"/>
</svg>
