<svg width="16" height="17" viewBox="0 0 16 17" fill="none" xmlns="http://www.w3.org/2000/svg">
<path d="M7.9 2C6.6342 2 5.39683 2.37535 4.34435 3.07859C3.29188 3.78184 2.47157 4.78138 1.98717 5.95083C1.50277 7.12027 1.37603 8.4071 1.62298 9.64858C1.86992 10.8901 2.47946 12.0304 3.37452 12.9255C4.26958 13.8205 5.40995 14.4301 6.65142 14.677C7.8929 14.924 9.17973 14.7972 10.3492 14.3128C11.5186 13.8284 12.5182 13.0081 13.2214 11.9556C13.9246 10.9032 14.3 9.6658 14.3 8.4C14.2982 6.70316 13.6233 5.07634 12.4235 3.8765C11.2237 2.67665 9.59684 2.00179 7.9 2ZM7.9 13.8154C6.82894 13.8154 5.78193 13.4978 4.89138 12.9027C4.00082 12.3077 3.30672 11.4619 2.89684 10.4724C2.48696 9.48284 2.37972 8.39399 2.58867 7.34351C2.79763 6.29303 3.31339 5.3281 4.07075 4.57074C4.8281 3.81339 5.79303 3.29762 6.84351 3.08867C7.89399 2.87972 8.98285 2.98696 9.97238 3.39684C10.9619 3.80671 11.8077 4.50082 12.4027 5.39137C12.9978 6.28193 13.3154 7.32894 13.3154 8.4C13.3138 9.83575 12.7427 11.2122 11.7275 12.2275C10.7122 13.2427 9.33575 13.8138 7.9 13.8154ZM6.91539 6.43077V10.3692C6.91539 10.4998 6.86352 10.625 6.77119 10.7173C6.67887 10.8097 6.55365 10.8615 6.42308 10.8615C6.29251 10.8615 6.16729 10.8097 6.07497 10.7173C5.98264 10.625 5.93077 10.4998 5.93077 10.3692V6.43077C5.93077 6.3002 5.98264 6.17498 6.07497 6.08265C6.16729 5.99033 6.29251 5.93846 6.42308 5.93846C6.55365 5.93846 6.67887 5.99033 6.77119 6.08265C6.86352 6.17498 6.91539 6.3002 6.91539 6.43077ZM9.86923 6.43077V10.3692C9.86923 10.4998 9.81736 10.625 9.72504 10.7173C9.63271 10.8097 9.50749 10.8615 9.37692 10.8615C9.24636 10.8615 9.12114 10.8097 9.02881 10.7173C8.93648 10.625 8.88462 10.4998 8.88462 10.3692V6.43077C8.88462 6.3002 8.93648 6.17498 9.02881 6.08265C9.12114 5.99033 9.24636 5.93846 9.37692 5.93846C9.50749 5.93846 9.63271 5.99033 9.72504 6.08265C9.81736 6.17498 9.86923 6.3002 9.86923 6.43077Z" fill="#040404"/>
</svg>
