<svg width="43" height="43" viewBox="0 0 43 43" fill="none" xmlns="http://www.w3.org/2000/svg">
<path fill-rule="evenodd" clip-rule="evenodd" d="M18.1691 7.64314C16.7225 8.70143 15.0301 10.3191 12.6052 12.6443L4.82369 20.1057C4.10946 20.7905 2.9753 20.7667 2.29045 20.0525C1.6056 19.3384 1.62941 18.2041 2.34363 17.5193L10.2182 9.96858C12.528 7.75376 14.3911 5.96718 16.0533 4.75114C17.782 3.48646 19.4895 2.6875 21.5003 2.6875C23.5111 2.6875 25.2188 3.48646 26.9473 4.75114C28.6095 5.9672 30.4726 7.75376 32.7825 9.9686L40.657 17.5193C41.3712 18.2041 41.395 19.3384 40.7102 20.0525C40.0254 20.7667 38.8911 20.7905 38.177 20.1057L30.3954 12.6443C27.9706 10.3191 26.2782 8.70144 24.8316 7.64314C23.4292 6.6172 22.458 6.27083 21.5003 6.27083C20.5427 6.27083 19.5714 6.6172 18.1691 7.64314Z" fill="#F78B26"/>
<path fill-rule="evenodd" clip-rule="evenodd" d="M16.3178 5.11002C18.0057 3.87519 19.6212 3.13281 21.5003 3.13281C23.3794 3.13281 24.995 3.87519 26.6829 5.11004C28.3199 6.30765 30.1637 8.07549 32.4899 10.306L32.4938 10.3097L32.5565 10.3699L37.1774 14.6385V24.2861V24.2862C37.1774 27.5787 37.1774 30.1866 36.9031 32.2277C36.6206 34.3282 36.0255 36.0285 34.6848 37.3694C33.344 38.7101 31.6437 39.3051 29.5431 39.5877C27.5021 39.862 24.8942 39.862 21.6015 39.862H21.6014H21.3991H21.399C18.1065 39.862 15.4985 39.862 13.4575 39.5877C11.3569 39.3051 9.65671 38.7101 8.31588 37.3694C6.97507 36.0285 6.38002 34.3282 6.09762 32.2277C5.82321 30.1868 5.82322 27.5791 5.82324 24.2867V24.2859V14.6385L10.4441 10.3699L10.5069 10.3097C12.8349 8.07745 14.6799 6.30833 16.3178 5.11002ZM18.7755 29.5285H21.8656C25.7024 29.5285 28.8129 26.4532 28.8129 22.6598C28.8129 18.8663 25.7024 15.791 21.8656 15.791C18.0288 15.791 14.9183 18.8663 14.9183 22.6598V33.342V33.342L14.9184 33.342C15.9413 33.342 16.9224 32.9402 17.6457 32.225C18.3691 31.5099 18.7754 30.5399 18.7755 29.5285ZM24.9558 22.6598C24.9558 23.061 24.8759 23.4583 24.7206 23.829C24.5653 24.1997 24.3377 24.5366 24.0508 24.8203C23.7638 25.104 23.4231 25.3291 23.0482 25.4827C22.6733 25.6362 22.2714 25.7153 21.8656 25.7153H18.7755V22.6598C18.7755 21.8495 19.101 21.0724 19.6805 20.4994C20.2601 19.9264 21.046 19.6045 21.8656 19.6045C22.6852 19.6045 23.4712 19.9264 24.0507 20.4994C24.6302 21.0724 24.9558 21.8495 24.9558 22.6598Z" fill="#F78B26"/>
</svg>
