<svg width="28" height="28" viewBox="0 0 28 28" fill="none" xmlns="http://www.w3.org/2000/svg">
<rect x="0.5" y="0.5" width="27" height="27" rx="7.5" stroke="#F2EFEB"/>
<path d="M10.5 14C10.5 14.1326 10.4473 14.2598 10.3536 14.3536C10.2598 14.4473 10.1326 14.5 10 14.5C9.86739 14.5 9.74021 14.4473 9.64645 14.3536C9.55268 14.2598 9.5 14.1326 9.5 14C9.5 13.8674 9.55268 13.7402 9.64645 13.6464C9.74021 13.5527 9.86739 13.5 10 13.5C10.1326 13.5 10.2598 13.5527 10.3536 13.6464C10.4473 13.7402 10.5 13.8674 10.5 14ZM14.5 14C14.5 14.1326 14.4473 14.2598 14.3536 14.3536C14.2598 14.4473 14.1326 14.5 14 14.5C13.8674 14.5 13.7402 14.4473 13.6464 14.3536C13.5527 14.2598 13.5 14.1326 13.5 14C13.5 13.8674 13.5527 13.7402 13.6464 13.6464C13.7402 13.5527 13.8674 13.5 14 13.5C14.1326 13.5 14.2598 13.5527 14.3536 13.6464C14.4473 13.7402 14.5 13.8674 14.5 14ZM18.5 14C18.5 14.1326 18.4473 14.2598 18.3536 14.3536C18.2598 14.4473 18.1326 14.5 18 14.5C17.8674 14.5 17.7402 14.4473 17.6464 14.3536C17.5527 14.2598 17.5 14.1326 17.5 14C17.5 13.8674 17.5527 13.7402 17.6464 13.6464C17.7402 13.5527 17.8674 13.5 18 13.5C18.1326 13.5 18.2598 13.5527 18.3536 13.6464C18.4473 13.7402 18.5 13.8674 18.5 14Z" fill="#717171" stroke="#717171" stroke-width="1.5" stroke-linecap="round" stroke-linejoin="round"/>
</svg>
