<svg width="232" height="70" viewBox="0 0 232 70" fill="none" xmlns="http://www.w3.org/2000/svg">
<path fill-rule="evenodd" clip-rule="evenodd" d="M29.287 12.3209C26.9551 14.0269 24.2268 16.6346 20.3178 20.3828L7.77389 32.4109C6.62253 33.5148 4.79424 33.4764 3.69025 32.3251C2.58625 31.1739 2.62464 29.3453 3.77597 28.2415L16.47 16.0696C20.1934 12.4992 23.1968 9.6192 25.8763 7.65892C28.663 5.62022 31.4156 4.33228 34.657 4.33228C37.8985 4.33228 40.6512 5.62022 43.4378 7.65892C46.1172 9.61923 49.1206 12.4992 52.8441 16.0696L65.5381 28.2415C66.6893 29.3453 66.7277 31.1739 65.6239 32.3251C64.52 33.4764 62.6915 33.5148 61.5402 32.4109L48.9961 20.3829C45.0872 16.6346 42.359 14.0269 40.0271 12.3209C37.7665 10.667 36.2008 10.1087 34.657 10.1087C33.1133 10.1087 31.5476 10.667 29.287 12.3209Z" fill="#F78B26"/>
<path fill-rule="evenodd" clip-rule="evenodd" d="M26.3003 8.24395C29.0212 6.25337 31.6255 5.05664 34.6547 5.05664C37.6838 5.05664 40.2881 6.25337 43.0091 8.24398C45.648 10.1746 48.6201 13.0243 52.3701 16.6199L52.3764 16.626L52.4775 16.7231L59.9265 23.6041V39.1563V39.1564C59.9265 44.4641 59.9265 48.6681 59.4843 51.9583C59.0289 55.3444 58.0697 58.0854 55.9084 60.2469C53.7469 62.4081 51.006 63.3673 47.6198 63.8228C44.3296 64.265 40.1255 64.265 34.8176 64.265H34.4915C29.1838 64.265 24.9797 64.265 21.6894 63.8228C18.3032 63.3673 15.5625 62.4081 13.401 60.2469C11.2396 58.0854 10.2804 55.3444 9.82511 51.9583C9.38276 48.6683 9.38278 44.4646 9.38281 39.1573V39.156V23.6041L16.8318 16.723L16.933 16.6259C20.6857 13.0275 23.6599 10.1756 26.3003 8.24395ZM30.2624 47.6056H35.2438C41.4289 47.6056 46.443 42.6482 46.443 36.5331C46.443 30.4179 41.4289 25.4605 35.2438 25.4605C29.0587 25.4605 24.0446 30.4179 24.0446 36.5331V53.7531C24.0446 53.7539 24.0446 53.7547 24.0446 53.7554C25.6937 53.7554 27.2752 53.1078 28.4413 51.9549C29.6073 50.802 30.2624 49.2384 30.2624 47.6079C30.2616 47.6079 30.2609 47.6079 30.2601 47.6079L30.2624 47.6056ZM40.2252 36.5331C40.2253 37.1799 40.0965 37.8203 39.8462 38.4179C39.5958 39.0155 39.2289 39.5585 38.7663 40.0159C38.3038 40.4733 37.7546 40.8361 37.1502 41.0836C36.5458 41.3312 35.898 41.4586 35.2438 41.4586H30.2624V36.5331C30.2624 35.2268 30.7872 33.9741 31.7214 33.0505C32.6556 32.1269 33.9227 31.608 35.2438 31.608C36.565 31.608 37.832 32.1269 38.7662 33.0505C39.7004 33.9741 40.2252 35.2268 40.2252 36.5331Z" fill="#F78B26"/>
<path d="M94.7974 21.477C97.7145 21.477 100.169 22.459 102.162 24.423C104.155 26.387 105.152 28.7986 105.152 31.6579C105.152 34.5173 104.155 36.9289 102.162 38.8929C100.169 40.8569 97.7145 41.8389 94.7974 41.8389H89.4687V51.8032H83.4901V21.477H94.7974ZM94.7974 36.2502C96.0682 36.2502 97.1224 35.817 97.96 34.9505C98.7976 34.0552 99.2164 32.9576 99.2164 31.6579C99.2164 30.3294 98.7976 29.2318 97.96 28.3654C97.1224 27.4989 96.0682 27.0657 94.7974 27.0657H89.4687V36.2502H94.7974ZM112.068 43.2686C112.819 45.9835 114.855 47.3409 118.176 47.3409C120.314 47.3409 121.931 46.6189 123.029 45.1748L127.534 47.7742C125.397 50.8646 122.249 52.4097 118.09 52.4097C114.508 52.4097 111.635 51.3267 109.468 49.1605C107.302 46.9944 106.219 44.265 106.219 40.9724C106.219 37.7088 107.288 34.9938 109.425 32.8277C111.562 30.6326 114.306 29.5351 117.656 29.5351C120.834 29.5351 123.447 30.6326 125.498 32.8277C127.577 35.0227 128.617 37.7376 128.617 40.9724C128.617 41.6945 128.545 42.4599 128.401 43.2686H112.068ZM111.981 38.9362H123.029C122.711 37.4633 122.047 36.3657 121.036 35.6437C120.054 34.9216 118.927 34.5606 117.656 34.5606C116.155 34.5606 114.913 34.9505 113.931 35.7303C112.949 36.4813 112.299 37.5499 111.981 38.9362ZM144.563 29.5351C146.931 29.5351 148.88 30.3294 150.411 31.9179C151.971 33.5064 152.751 35.7014 152.751 38.503V51.8032H147.162V39.1962C147.162 37.7521 146.772 36.6546 145.992 35.9036C145.212 35.1238 144.173 34.7339 142.873 34.7339C141.429 34.7339 140.274 35.1816 139.407 36.0769C138.541 36.9723 138.107 38.3153 138.107 40.106V51.8032H132.519V30.1416H138.107V32.5677C139.465 30.546 141.617 29.5351 144.563 29.5351ZM169.913 35.5137H165.017V44.5249C165.017 45.2759 165.205 45.8246 165.581 46.1712C165.956 46.5178 166.505 46.72 167.227 46.7777C167.949 46.8066 168.844 46.7922 169.913 46.7344V51.8032C166.072 52.2365 163.357 51.8754 161.768 50.7201C160.209 49.5649 159.429 47.4998 159.429 44.5249V35.5137H155.66V30.1416H159.429V25.766L165.017 24.0764V30.1416H169.913V35.5137ZM176.626 27.5422C175.702 27.5422 174.893 27.2101 174.2 26.5458C173.536 25.8526 173.204 25.0439 173.204 24.1197C173.204 23.1955 173.536 22.3868 174.2 21.6936C174.893 21.0004 175.702 20.6539 176.626 20.6539C177.579 20.6539 178.388 21.0004 179.052 21.6936C179.745 22.3868 180.092 23.1955 180.092 24.1197C180.092 25.0439 179.745 25.8526 179.052 26.5458C178.388 27.2101 177.579 27.5422 176.626 27.5422ZM173.853 51.8032V30.1416H179.442V51.8032H173.853ZM184.557 51.8032V20.1773H190.146V51.8032H184.557ZM195.261 51.8032V20.1773H200.85V51.8032H195.261ZM224.421 49.1172C222.197 51.3122 219.482 52.4097 216.276 52.4097C213.07 52.4097 210.355 51.3122 208.131 49.1172C205.936 46.8933 204.839 44.1783 204.839 40.9724C204.839 37.7665 205.936 35.066 208.131 32.871C210.355 30.6471 213.07 29.5351 216.276 29.5351C219.482 29.5351 222.197 30.6471 224.421 32.871C226.645 35.066 227.757 37.7665 227.757 40.9724C227.757 44.1783 226.645 46.8933 224.421 49.1172ZM212.074 45.2614C213.2 46.3878 214.601 46.951 216.276 46.951C217.951 46.951 219.352 46.3878 220.478 45.2614C221.605 44.135 222.168 42.7054 222.168 40.9724C222.168 39.2395 221.605 37.8098 220.478 36.6834C219.352 35.557 217.951 34.9938 216.276 34.9938C214.601 34.9938 213.2 35.557 212.074 36.6834C210.976 37.8098 210.427 39.2395 210.427 40.9724C210.427 42.7054 210.976 44.135 212.074 45.2614Z" fill="#212529"/>
</svg>
