<svg width="14" height="14" viewBox="0 0 14 14" fill="none" xmlns="http://www.w3.org/2000/svg">
<path d="M5.83333 13.4167C5.83333 13.5714 5.77188 13.7197 5.66248 13.8291C5.55308 13.9385 5.40471 14 5.25 14H1.16667C0.857247 14 0.560501 13.8771 0.341709 13.6583C0.122916 13.4395 0 13.1428 0 12.8333V1.16667C0 0.857247 0.122916 0.560501 0.341709 0.341709C0.560501 0.122916 0.857247 0 1.16667 0H5.25C5.40471 0 5.55308 0.0614583 5.66248 0.170854C5.77188 0.280251 5.83333 0.428624 5.83333 0.583333C5.83333 0.738043 5.77188 0.886416 5.66248 0.995812C5.55308 1.10521 5.40471 1.16667 5.25 1.16667H1.16667V12.8333H5.25C5.40471 12.8333 5.55308 12.8948 5.66248 13.0042C5.77188 13.1136 5.83333 13.262 5.83333 13.4167ZM13.8294 6.58729L10.9127 3.67062C10.8033 3.56117 10.6548 3.49968 10.5 3.49968C10.3452 3.49968 10.1967 3.56117 10.0873 3.67062C9.97783 3.78008 9.91634 3.92854 9.91634 4.08333C9.91634 4.23813 9.97783 4.38658 10.0873 4.49604L12.0086 6.41667H5.25C5.09529 6.41667 4.94692 6.47812 4.83752 6.58752C4.72813 6.69692 4.66667 6.84529 4.66667 7C4.66667 7.15471 4.72813 7.30308 4.83752 7.41248C4.94692 7.52188 5.09529 7.58333 5.25 7.58333H12.0086L10.0873 9.50396C9.97783 9.61341 9.91634 9.76187 9.91634 9.91667C9.91634 10.0715 9.97783 10.2199 10.0873 10.3294C10.1967 10.4388 10.3452 10.5003 10.5 10.5003C10.6548 10.5003 10.8033 10.4388 10.9127 10.3294L13.8294 7.41271C13.8836 7.35853 13.9266 7.2942 13.956 7.22338C13.9854 7.15257 14.0005 7.07666 14.0005 7C14.0005 6.92334 13.9854 6.84743 13.956 6.77662C13.9266 6.7058 13.8836 6.64147 13.8294 6.58729Z" fill="#E46962"/>
</svg>
