<svg width="20" height="28" viewBox="0 0 20 28" fill="none" xmlns="http://www.w3.org/2000/svg">
<rect x="0.5" y="27.5" width="27" height="19" rx="3.5" transform="rotate(-90 0.5 27.5)" stroke="#F2EFEB"/>
<path d="M9.68777 13.6872V14.3122M10.3128 13.6872V14.3122M9.68777 7.85388V8.47888M10.3128 7.85388V8.47888M9.68777 19.5205V20.1455M10.3128 19.5205V20.1455M10.0003 14.8333C10.4606 14.8333 10.8337 14.4602 10.8337 13.9999C10.8337 13.5397 10.4606 13.1666 10.0003 13.1666C9.54009 13.1666 9.16699 13.5397 9.16699 13.9999C9.16699 14.4602 9.54009 14.8333 10.0003 14.8333ZM10.0003 8.99992C10.4606 8.99992 10.8337 8.62682 10.8337 8.16659C10.8337 7.70635 10.4606 7.33325 10.0003 7.33325C9.54009 7.33325 9.16699 7.70635 9.16699 8.16659C9.16699 8.62682 9.54009 8.99992 10.0003 8.99992ZM10.0003 20.6666C10.4606 20.6666 10.8337 20.2935 10.8337 19.8333C10.8337 19.373 10.4606 18.9999 10.0003 18.9999C9.54009 18.9999 9.16699 19.373 9.16699 19.8333C9.16699 20.2935 9.54009 20.6666 10.0003 20.6666Z" stroke="#040404" stroke-width="1.5" stroke-linecap="round"/>
</svg>
