<svg width="16" height="17" viewBox="0 0 16 17" fill="none" xmlns="http://www.w3.org/2000/svg">
<path d="M11.6161 8.7781L8.76915 7.73001L7.72106 4.88085C7.65899 4.71224 7.54669 4.56671 7.39932 4.46392C7.25196 4.36113 7.0766 4.30602 6.89692 4.30602C6.71725 4.30602 6.54189 4.36113 6.39452 4.46392C6.24715 4.56671 6.13486 4.71224 6.07279 4.88085L5.0236 7.7267L2.17444 8.77479C2.00582 8.83686 1.8603 8.94915 1.75751 9.09652C1.65472 9.24389 1.59961 9.41925 1.59961 9.59892C1.59961 9.7786 1.65472 9.95395 1.75751 10.1013C1.8603 10.2487 2.00582 10.361 2.17444 10.4231L5.01974 11.4778L6.06783 14.3253C6.1299 14.4939 6.24219 14.6394 6.38956 14.7422C6.53693 14.845 6.71228 14.9001 6.89196 14.9001C7.07164 14.9001 7.24699 14.845 7.39436 14.7422C7.54173 14.6394 7.65402 14.4939 7.71609 14.3253L8.76418 11.4783L11.6133 10.4302C11.782 10.3682 11.9275 10.2559 12.0303 10.1085C12.1331 9.96112 12.1882 9.78577 12.1882 9.60609C12.1882 9.42642 12.1331 9.25106 12.0303 9.10369C11.9275 8.95632 11.782 8.84403 11.6133 8.78196L11.6161 8.7781ZM8.46134 10.6503C8.34208 10.6941 8.23378 10.7633 8.14396 10.8531C8.05413 10.943 7.98493 11.0513 7.94116 11.1705L6.89306 14.0092L5.84718 11.1683C5.80337 11.0497 5.73439 10.9419 5.64497 10.8525C5.55555 10.7631 5.44783 10.6941 5.3292 10.6503L2.49052 9.60223L5.3292 8.55414C5.44783 8.51033 5.55555 8.44135 5.64497 8.35193C5.73439 8.26252 5.80337 8.15479 5.84718 8.03616L6.89527 5.19749L7.94336 8.03616C7.98713 8.15542 8.05633 8.26372 8.14616 8.35355C8.23599 8.44337 8.34429 8.51257 8.46355 8.55635L11.3022 9.60444L8.46134 10.6503ZM8.66048 3.86531C8.66048 3.74827 8.70697 3.63602 8.78973 3.55326C8.87249 3.4705 8.98474 3.424 9.10178 3.424H9.98438V2.5414C9.98438 2.42436 10.0309 2.31211 10.1136 2.22935C10.1964 2.14659 10.3086 2.1001 10.4257 2.1001C10.5427 2.1001 10.655 2.14659 10.7377 2.22935C10.8205 2.31211 10.867 2.42436 10.867 2.5414V3.424H11.7496C11.8666 3.424 11.9789 3.4705 12.0616 3.55326C12.1444 3.63602 12.1909 3.74827 12.1909 3.86531C12.1909 3.98235 12.1444 4.09459 12.0616 4.17735C11.9789 4.26011 11.8666 4.30661 11.7496 4.30661H10.867V5.18921C10.867 5.30625 10.8205 5.4185 10.7377 5.50126C10.655 5.58402 10.5427 5.63051 10.4257 5.63051C10.3086 5.63051 10.1964 5.58402 10.1136 5.50126C10.0309 5.4185 9.98438 5.30625 9.98438 5.18921V4.30661H9.10178C8.98474 4.30661 8.87249 4.26011 8.78973 4.17735C8.70697 4.09459 8.66048 3.98235 8.66048 3.86531ZM14.3974 6.51312C14.3974 6.63016 14.3509 6.7424 14.2681 6.82517C14.1854 6.90793 14.0731 6.95442 13.9561 6.95442H13.5148V7.39572C13.5148 7.51276 13.4683 7.62501 13.3855 7.70777C13.3028 7.79053 13.1905 7.83702 13.0735 7.83702C12.9565 7.83702 12.8442 7.79053 12.7614 7.70777C12.6787 7.62501 12.6322 7.51276 12.6322 7.39572V6.95442H12.1909C12.0739 6.95442 11.9616 6.90793 11.8788 6.82517C11.7961 6.7424 11.7496 6.63016 11.7496 6.51312C11.7496 6.39608 11.7961 6.28383 11.8788 6.20107C11.9616 6.11831 12.0739 6.07182 12.1909 6.07182H12.6322V5.63051C12.6322 5.51347 12.6787 5.40123 12.7614 5.31847C12.8442 5.23571 12.9565 5.18921 13.0735 5.18921C13.1905 5.18921 13.3028 5.23571 13.3855 5.31847C13.4683 5.40123 13.5148 5.51347 13.5148 5.63051V6.07182H13.9561C14.0731 6.07182 14.1854 6.11831 14.2681 6.20107C14.3509 6.28383 14.3974 6.39608 14.3974 6.51312Z" fill="#040404"/>
</svg>
