<svg width="16" height="16" viewBox="0 0 16 16" fill="none" xmlns="http://www.w3.org/2000/svg">
<path d="M5.28521 5.64001C5.80721 6.72723 6.5188 7.74621 7.41998 8.64739C8.32116 9.54858 9.34015 10.2602 10.4274 10.7822C10.5209 10.8271 10.5676 10.8495 10.6268 10.8668C10.8371 10.9281 11.0953 10.884 11.2733 10.7565C11.3234 10.7206 11.3663 10.6778 11.452 10.592C11.7143 10.3298 11.8454 10.1987 11.9772 10.113C12.4744 9.78977 13.1153 9.78977 13.6125 10.113C13.7443 10.1987 13.8754 10.3298 14.1376 10.592L14.2838 10.7382C14.6823 11.1368 14.8816 11.3361 14.9899 11.5501C15.2052 11.9758 15.2052 12.4785 14.9899 12.9041C14.8816 13.1182 14.6823 13.3175 14.2838 13.7161L14.1655 13.8343C13.7683 14.2315 13.5697 14.4301 13.2997 14.5818C13 14.7501 12.5347 14.8711 12.191 14.8701C11.8813 14.8692 11.6696 14.8091 11.2463 14.6889C8.97125 14.0432 6.82448 12.8249 5.0335 11.0339C3.24251 9.24289 2.02415 7.09612 1.37843 4.82108C1.25827 4.39774 1.19819 4.18607 1.19727 3.87636C1.19625 3.5327 1.31727 3.06733 1.48559 2.7677C1.63727 2.49768 1.83588 2.29907 2.2331 1.90185L2.35132 1.78362C2.74991 1.38504 2.9492 1.18575 3.16323 1.07749C3.5889 0.86219 4.0916 0.86219 4.51727 1.07749C4.73131 1.18575 4.9306 1.38504 5.32918 1.78362L5.47533 1.92978C5.73754 2.19198 5.86864 2.32308 5.95436 2.45492C6.2776 2.95208 6.2776 3.59302 5.95435 4.09019C5.86864 4.22202 5.73754 4.35312 5.47533 4.61533C5.3896 4.70106 5.34673 4.74393 5.31085 4.79404C5.18334 4.97211 5.13932 5.2303 5.20061 5.44057C5.21786 5.49974 5.24031 5.5465 5.28521 5.64001Z" stroke="#424242" stroke-width="1.5" stroke-linecap="round" stroke-linejoin="round"/>
</svg>
