<svg width="16" height="17" viewBox="0 0 16 17" fill="none" xmlns="http://www.w3.org/2000/svg">
<path d="M8.67949 2.51282V4.5641C8.67949 4.70011 8.62546 4.83055 8.52929 4.92672C8.43311 5.02289 8.30267 5.07692 8.16667 5.07692C8.03066 5.07692 7.90022 5.02289 7.80405 4.92672C7.70788 4.83055 7.65385 4.70011 7.65385 4.5641V2.51282C7.65385 2.37681 7.70788 2.24637 7.80405 2.1502C7.90022 2.05403 8.03066 2 8.16667 2C8.30267 2 8.43311 2.05403 8.52929 2.1502C8.62546 2.24637 8.67949 2.37681 8.67949 2.51282ZM11.0673 6.27885C11.1347 6.27881 11.2015 6.26549 11.2637 6.23965C11.326 6.2138 11.3825 6.17593 11.4301 6.1282L12.8808 4.6782C12.977 4.58198 13.0311 4.45147 13.0311 4.31538C13.0311 4.1793 12.977 4.04879 12.8808 3.95256C12.7845 3.85634 12.654 3.80228 12.5179 3.80228C12.3819 3.80228 12.2514 3.85634 12.1551 3.95256L10.7051 5.4032C10.6334 5.47489 10.5845 5.56624 10.5646 5.66571C10.5448 5.76518 10.5549 5.8683 10.5937 5.96203C10.6324 6.05576 10.6981 6.13589 10.7824 6.19228C10.8667 6.24867 10.9659 6.2788 11.0673 6.27885ZM14.3205 8.15385H12.2692C12.1332 8.15385 12.0028 8.20788 11.9066 8.30405C11.8104 8.40022 11.7564 8.53066 11.7564 8.66667C11.7564 8.80267 11.8104 8.93311 11.9066 9.02929C12.0028 9.12546 12.1332 9.17949 12.2692 9.17949H14.3205C14.4565 9.17949 14.587 9.12546 14.6831 9.02929C14.7793 8.93311 14.8333 8.80267 14.8333 8.66667C14.8333 8.53066 14.7793 8.40022 14.6831 8.30405C14.587 8.20788 14.4565 8.15385 14.3205 8.15385ZM11.4301 11.2051C11.3332 11.113 11.2041 11.0624 11.0703 11.0641C10.9366 11.0658 10.8089 11.1197 10.7143 11.2143C10.6197 11.3089 10.5658 11.4366 10.5641 11.5703C10.5624 11.7041 10.613 11.8332 10.7051 11.9301L12.1551 13.3808C12.2514 13.477 12.3819 13.5311 12.5179 13.5311C12.654 13.5311 12.7845 13.477 12.8808 13.3808C12.977 13.2845 13.0311 13.154 13.0311 13.0179C13.0311 12.8819 12.977 12.7514 12.8808 12.6551L11.4301 11.2051ZM8.16667 12.2564C8.03066 12.2564 7.90022 12.3104 7.80405 12.4066C7.70788 12.5028 7.65385 12.6332 7.65385 12.7692V14.8205C7.65385 14.9565 7.70788 15.087 7.80405 15.1831C7.90022 15.2793 8.03066 15.3333 8.16667 15.3333C8.30267 15.3333 8.43311 15.2793 8.52929 15.1831C8.62546 15.087 8.67949 14.9565 8.67949 14.8205V12.7692C8.67949 12.6332 8.62546 12.5028 8.52929 12.4066C8.43311 12.3104 8.30267 12.2564 8.16667 12.2564ZM4.9032 11.2051L3.45256 12.6551C3.35634 12.7514 3.30228 12.8819 3.30228 13.0179C3.30228 13.154 3.35634 13.2845 3.45256 13.3808C3.54879 13.477 3.6793 13.5311 3.81538 13.5311C3.95147 13.5311 4.08198 13.477 4.1782 13.3808L5.6282 11.9301C5.72032 11.8332 5.77091 11.7041 5.7692 11.5703C5.76749 11.4366 5.7136 11.3089 5.61904 11.2143C5.52448 11.1197 5.39671 11.0658 5.26299 11.0641C5.12926 11.0624 5.00016 11.113 4.9032 11.2051ZM4.57692 8.66667C4.57692 8.53066 4.52289 8.40022 4.42672 8.30405C4.33055 8.20788 4.20011 8.15385 4.0641 8.15385H2.01282C1.87681 8.15385 1.74637 8.20788 1.6502 8.30405C1.55403 8.40022 1.5 8.53066 1.5 8.66667C1.5 8.80267 1.55403 8.93311 1.6502 9.02929C1.74637 9.12546 1.87681 9.17949 2.01282 9.17949H4.0641C4.20011 9.17949 4.33055 9.12546 4.42672 9.02929C4.52289 8.93311 4.57692 8.80267 4.57692 8.66667ZM4.1782 3.95256C4.08198 3.85634 3.95147 3.80228 3.81538 3.80228C3.6793 3.80228 3.54879 3.85634 3.45256 3.95256C3.35634 4.04879 3.30228 4.1793 3.30228 4.31538C3.30228 4.45147 3.35634 4.58198 3.45256 4.6782L4.9032 6.1282C5.00016 6.22032 5.12926 6.27091 5.26299 6.2692C5.39671 6.26749 5.52448 6.2136 5.61904 6.11904C5.7136 6.02448 5.76749 5.89671 5.7692 5.76299C5.77091 5.62926 5.72032 5.50016 5.6282 5.4032L4.1782 3.95256Z" fill="#040404"/>
</svg>
