<svg width="74" height="80" viewBox="0 0 74 80" fill="none" xmlns="http://www.w3.org/2000/svg">
<path d="M70.8464 12.3077H55.4618V9.23077C55.4618 6.78262 54.4892 4.43474 52.7581 2.70363C51.027 0.972525 48.6791 0 46.231 0H27.7695C25.3213 0 22.9734 0.972525 21.2423 2.70363C19.5112 4.43474 18.5387 6.78262 18.5387 9.23077V12.3077H3.15407C2.33802 12.3077 1.55539 12.6319 0.978359 13.2089C0.401324 13.7859 0.0771484 14.5686 0.0771484 15.3846C0.0771484 16.2007 0.401324 16.9833 0.978359 17.5603C1.55539 18.1374 2.33802 18.4615 3.15407 18.4615H6.23099V73.8462C6.23099 75.4783 6.87934 77.0435 8.03341 78.1976C9.18748 79.3517 10.7527 80 12.3848 80H61.6156C63.2477 80 64.813 79.3517 65.967 78.1976C67.1211 77.0435 67.7695 75.4783 67.7695 73.8462V18.4615H70.8464C71.6624 18.4615 72.4451 18.1374 73.0221 17.5603C73.5991 16.9833 73.9233 16.2007 73.9233 15.3846C73.9233 14.5686 73.5991 13.7859 73.0221 13.2089C72.4451 12.6319 71.6624 12.3077 70.8464 12.3077ZM24.6925 9.23077C24.6925 8.41472 25.0167 7.63209 25.5937 7.05506C26.1708 6.47802 26.9534 6.15385 27.7695 6.15385H46.231C47.047 6.15385 47.8297 6.47802 48.4067 7.05506C48.9837 7.63209 49.3079 8.41472 49.3079 9.23077V12.3077H24.6925V9.23077ZM61.6156 73.8462H12.3848V18.4615H61.6156V73.8462ZM30.8464 33.8462V58.4615C30.8464 59.2776 30.5222 60.0602 29.9452 60.6373C29.3681 61.2143 28.5855 61.5385 27.7695 61.5385C26.9534 61.5385 26.1708 61.2143 25.5937 60.6373C25.0167 60.0602 24.6925 59.2776 24.6925 58.4615V33.8462C24.6925 33.0301 25.0167 32.2475 25.5937 31.6704C26.1708 31.0934 26.9534 30.7692 27.7695 30.7692C28.5855 30.7692 29.3681 31.0934 29.9452 31.6704C30.5222 32.2475 30.8464 33.0301 30.8464 33.8462ZM49.3079 33.8462V58.4615C49.3079 59.2776 48.9837 60.0602 48.4067 60.6373C47.8297 61.2143 47.047 61.5385 46.231 61.5385C45.4149 61.5385 44.6323 61.2143 44.0553 60.6373C43.4782 60.0602 43.1541 59.2776 43.1541 58.4615V33.8462C43.1541 33.0301 43.4782 32.2475 44.0553 31.6704C44.6323 31.0934 45.4149 30.7692 46.231 30.7692C47.047 30.7692 47.8297 31.0934 48.4067 31.6704C48.9837 32.2475 49.3079 33.0301 49.3079 33.8462Z" fill="#FF902A"/>
</svg>
