<svg width="20" height="20" viewBox="0 0 20 20" fill="none" xmlns="http://www.w3.org/2000/svg">
<path d="M9.08464 8.33333C9.08464 7.91912 8.74885 7.58333 8.33464 7.58333C7.92042 7.58333 7.58464 7.91912 7.58464 8.33333H9.08464ZM7.58464 15C7.58464 15.4142 7.92042 15.75 8.33464 15.75C8.74885 15.75 9.08464 15.4142 9.08464 15H7.58464ZM12.418 8.33333C12.418 7.91912 12.0822 7.58333 11.668 7.58333C11.2538 7.58333 10.918 7.91912 10.918 8.33333H12.418ZM10.918 15C10.918 15.4142 11.2538 15.75 11.668 15.75C12.0822 15.75 12.418 15.4142 12.418 15H10.918ZM5.91132 17.3183L6.25181 16.6501H6.25181L5.91132 17.3183ZM5.18296 16.59L5.85121 16.2495H5.85121L5.18296 16.59ZM14.8196 16.59L14.1514 16.2495L14.8196 16.59ZM14.0913 17.3183L13.7508 16.6501L13.7508 16.6501L14.0913 17.3183ZM4.16797 5.08333C3.75376 5.08333 3.41797 5.41912 3.41797 5.83333C3.41797 6.24755 3.75376 6.58333 4.16797 6.58333V5.08333ZM15.8346 6.58333C16.2488 6.58333 16.5846 6.24755 16.5846 5.83333C16.5846 5.41912 16.2488 5.08333 15.8346 5.08333V6.58333ZM6.33464 5.83333C6.33464 6.24755 6.67042 6.58333 7.08464 6.58333C7.49885 6.58333 7.83464 6.24755 7.83464 5.83333H6.33464ZM12.168 5.83333C12.168 6.24755 12.5038 6.58333 12.918 6.58333C13.3322 6.58333 13.668 6.24755 13.668 5.83333H12.168ZM7.58464 8.33333V15H9.08464V8.33333H7.58464ZM10.918 8.33333V15H12.418V8.33333H10.918ZM14.2513 5.83333V14.8333H15.7513V5.83333H14.2513ZM12.3346 16.75H7.66797V18.25H12.3346V16.75ZM4.2513 5.83333V14.8333H5.7513V5.83333H4.2513ZM7.66797 16.75C7.18888 16.75 6.87467 16.7494 6.63438 16.7298C6.40284 16.7109 6.30672 16.6781 6.25181 16.6501L5.57083 17.9866C5.87244 18.1403 6.18793 18.1983 6.51223 18.2248C6.82778 18.2506 7.21363 18.25 7.66797 18.25V16.75ZM4.2513 14.8333C4.2513 15.2877 4.25072 15.6735 4.2765 15.9891C4.303 16.3134 4.36102 16.6289 4.5147 16.9305L5.85121 16.2495C5.82324 16.1946 5.79044 16.0985 5.77152 15.8669C5.75189 15.6266 5.7513 15.3124 5.7513 14.8333H4.2513ZM6.25181 16.6501C6.07933 16.5622 5.9391 16.422 5.85121 16.2495L4.5147 16.9305C4.7464 17.3852 5.1161 17.7549 5.57083 17.9866L6.25181 16.6501ZM14.2513 14.8333C14.2513 15.3124 14.2507 15.6266 14.2311 15.8669C14.2122 16.0985 14.1794 16.1946 14.1514 16.2495L15.4879 16.9305C15.6416 16.6289 15.6996 16.3134 15.7261 15.9891C15.7519 15.6735 15.7513 15.2877 15.7513 14.8333H14.2513ZM12.3346 18.25C12.789 18.25 13.1748 18.2506 13.4904 18.2248C13.8147 18.1983 14.1302 18.1403 14.4318 17.9866L13.7508 16.6501C13.6959 16.6781 13.5998 16.7109 13.3682 16.7298C13.1279 16.7494 12.8137 16.75 12.3346 16.75V18.25ZM14.1514 16.2495C14.0635 16.422 13.9233 16.5622 13.7508 16.6501L14.4318 17.9866C14.8865 17.7549 15.2562 17.3852 15.4879 16.9305L14.1514 16.2495ZM4.16797 6.58333H5.0013V5.08333H4.16797V6.58333ZM5.0013 6.58333H15.0013V5.08333H5.0013V6.58333ZM15.0013 6.58333H15.8346V5.08333H15.0013V6.58333ZM7.83464 5.16667C7.83464 4.16996 8.74001 3.25 10.0013 3.25V1.75C8.04093 1.75 6.33464 3.21785 6.33464 5.16667H7.83464ZM10.0013 3.25C11.2626 3.25 12.168 4.16996 12.168 5.16667H13.668C13.668 3.21785 11.9617 1.75 10.0013 1.75V3.25ZM6.33464 5.16667V5.83333H7.83464V5.16667H6.33464ZM12.168 5.16667V5.83333H13.668V5.16667H12.168Z" fill="#AAAAAA"/>
</svg>
