<svg width="100" height="126" viewBox="0 0 100 126" fill="none" xmlns="http://www.w3.org/2000/svg">
<path d="M18.716 125.716C18.7163 125.716 18.7162 125.717 18.7159 125.717C17.886 125.716 17.1916 125.085 17.1122 124.259L8.23267 32.5108C8.18922 32.0577 8.33819 31.6083 8.64357 31.2707C8.94894 30.9343 9.38341 30.7418 9.83775 30.7418H66.837C68.0726 30.7418 68.2098 28.9406 66.9885 28.7534L1.36789 18.6943C0.94458 18.6298 0.565964 18.3989 0.312721 18.0551C0.0594864 17.71 -0.0460129 17.2792 0.0185318 16.8559L1.29964 8.49775C1.43494 7.61762 2.25919 7.01182 3.13808 7.14837L28.1378 10.9804C28.6836 11.0641 29.194 10.6894 29.2777 10.1435L30.5798 1.65158C30.6444 1.22827 30.8753 0.849653 31.2191 0.596413C31.5642 0.343174 31.995 0.237673 32.4183 0.302224L72.7479 6.48422C73.628 6.61953 74.2326 7.44256 74.0973 8.3227L72.7952 16.8146C72.7115 17.3605 73.0862 17.8709 73.6321 17.9546L98.6317 21.7866C99.5118 21.9219 100.116 22.7449 99.9811 23.6251L98.7 31.9832C98.6354 32.4065 98.4045 32.7851 98.0607 33.0384C97.7826 33.2432 97.4474 33.3512 97.106 33.3512C97.0253 33.3512 96.9434 33.345 96.8615 33.3326L92.8145 32.712C92.2469 32.625 91.7229 33.0326 91.6676 33.6041L82.8948 124.258C82.8154 125.085 82.1202 125.715 81.2898 125.715H18.7162C18.7158 125.715 18.7157 125.716 18.716 125.716ZM34.514 3.88611C33.9681 3.80243 33.4577 4.17712 33.374 4.72302L32.468 10.6325C32.3843 11.1785 32.759 11.6889 33.305 11.7725L68.4686 17.1624C69.0145 17.2461 69.5249 16.8714 69.6086 16.3255L70.5146 10.416C70.5983 9.8701 70.2235 9.3597 69.6776 9.27602L34.514 3.88611ZM96.5501 24.7322C96.5505 24.7317 96.5503 24.731 96.5497 24.7309L5.23373 10.7335C4.68787 10.6498 4.17752 11.0244 4.09377 11.5703L3.60382 14.7637C3.52006 15.3097 3.89478 15.8202 4.44074 15.9038L94.7694 29.7499C95.3153 29.8336 95.8257 29.4588 95.9094 28.9129L96.5499 24.7326C96.5499 24.7324 96.55 24.7323 96.5501 24.7322ZM88.288 35.0645C88.3449 34.4769 87.883 33.9682 87.2927 33.9682H12.7168C12.1265 33.9682 11.6646 34.4769 11.7215 35.0645L20.0946 121.587C20.1442 122.099 20.575 122.49 21.09 122.49H78.9195C79.4345 122.49 79.8653 122.099 79.9149 121.587L88.288 35.0645Z" fill="#FFAC5F"/>
<path d="M50.0066 110.073C49.1153 110.073 48.3941 109.35 48.3941 108.46V49.2681C48.3941 48.3768 49.1165 47.6555 50.0066 47.6555C50.8967 47.6555 51.6191 48.378 51.6191 49.2681V108.46C51.6191 109.352 50.8967 110.073 50.0066 110.073Z" fill="#FFAC5F"/>
<path d="M67.9121 108.496C67.8476 109.343 67.1412 109.987 66.3058 109.987C66.2648 109.987 66.2239 109.986 66.1816 109.982C65.2941 109.914 64.6287 109.139 64.6957 108.252L69.1969 49.231C69.264 48.3422 70.0349 47.6805 70.9274 47.7451C71.815 47.8133 72.4804 48.588 72.4133 49.4755L67.9121 108.496Z" fill="#FFAC5F"/>
<path d="M33.0866 109.983C33.0444 109.986 33.0034 109.988 32.9624 109.988C32.127 109.988 31.4207 109.343 31.3561 108.497L26.8561 49.4758C26.7891 48.5883 27.4532 47.8124 28.3421 47.7454C29.2284 47.6783 30.0055 48.3425 30.0725 49.2313L34.5725 108.252C34.6395 109.14 33.9754 109.916 33.0866 109.983Z" fill="#FFAC5F"/>
</svg>
