<svg width="17" height="16" viewBox="0 0 17 16" fill="none" xmlns="http://www.w3.org/2000/svg">
<path d="M0.866953 8.85016C0.663519 8.67579 0.561803 8.58861 0.524533 8.48486C0.491822 8.3938 0.491822 8.29419 0.524533 8.20313C0.561803 8.09938 0.663519 8.01219 0.866953 7.83782L7.92589 1.7873C8.27608 1.48714 8.45118 1.33706 8.59942 1.33338C8.72826 1.33018 8.85132 1.38679 8.93274 1.48668C9.02642 1.60163 9.02642 1.83224 9.02642 2.29347V5.87285C10.8053 6.18406 12.4334 7.08546 13.6433 8.43888C14.9624 9.91442 15.6921 11.8239 15.6931 13.8031V14.3131C14.8186 13.2597 13.7268 12.4078 12.4925 11.8156C11.4042 11.2935 10.2277 10.9843 9.02642 10.9028V14.3945C9.02642 14.8557 9.02642 15.0864 8.93274 15.2013C8.85132 15.3012 8.72826 15.3578 8.59942 15.3546C8.45118 15.3509 8.27608 15.2008 7.92589 14.9007L0.866953 8.85016Z" stroke="#AAAAAA" stroke-linecap="round" stroke-linejoin="round"/>
</svg>
