<svg width="18" height="16" viewBox="0 0 18 16" fill="none" xmlns="http://www.w3.org/2000/svg">
<path d="M0.667969 4.66683H17.3346M4.0013 11.3335H7.33464M10.668 11.3335H14.0013M3.33464 14.6668H14.668C15.6014 14.6668 16.0681 14.6668 16.4246 14.4852C16.7382 14.3254 16.9932 14.0704 17.153 13.7568C17.3346 13.4003 17.3346 12.9336 17.3346 12.0002V4.00016C17.3346 3.06674 17.3346 2.60003 17.153 2.24351C16.9932 1.92991 16.7382 1.67494 16.4246 1.51515C16.0681 1.3335 15.6014 1.3335 14.668 1.3335H3.33464C2.40121 1.3335 1.9345 1.3335 1.57798 1.51515C1.26438 1.67494 1.00941 1.92991 0.849625 2.24351C0.667969 2.60003 0.667969 3.06674 0.667969 4.00016V12.0002C0.667969 12.9336 0.667969 13.4003 0.849625 13.7568C1.00941 14.0704 1.26438 14.3254 1.57798 14.4852C1.9345 14.6668 2.40121 14.6668 3.33464 14.6668Z" stroke="#040404" stroke-linecap="round"/>
</svg>
