<svg width="20" height="20" viewBox="0 0 20 20" fill="none" xmlns="http://www.w3.org/2000/svg">
<path d="M9.16667 4.16667L17.5 4.16667M9.16667 10L17.5 10M9.16667 15.8333H17.5M5.83333 10C5.83333 10.9205 5.08714 11.6667 4.16667 11.6667C3.24619 11.6667 2.5 10.9205 2.5 10C2.5 9.07953 3.24619 8.33333 4.16667 8.33333C5.08714 8.33333 5.83333 9.07953 5.83333 10ZM5.83333 4.16667C5.83333 5.08714 5.08714 5.83333 4.16667 5.83333C3.24619 5.83333 2.5 5.08714 2.5 4.16667C2.5 3.24619 3.24619 2.5 4.16667 2.5C5.08714 2.5 5.83333 3.24619 5.83333 4.16667ZM5.83333 15.8333C5.83333 16.7538 5.08714 17.5 4.16667 17.5C3.24619 17.5 2.5 16.7538 2.5 15.8333C2.5 14.9129 3.24619 14.1667 4.16667 14.1667C5.08714 14.1667 5.83333 14.9129 5.83333 15.8333Z" stroke="#424242" stroke-linecap="round"/>
</svg>
