<svg width="20" height="20" viewBox="0 0 20 20" fill="none"
    xmlns="http://www.w3.org/2000/svg">
    <path d="M9.33333 5.33333L16 5.33333M9.33333 10L16 10M9.33333 14.6667H16M6.66667 10C6.66667 10.7364 6.06971 11.3333 5.33333 11.3333C4.59695 11.3333 4 10.7364 4 10C4 9.26362 4.59695 8.66667 5.33333 8.66667C6.06971 8.66667 6.66667 9.26362 6.66667 10ZM6.66667 5.33333C6.66667 6.06971 6.06971 6.66667 5.33333 6.66667C4.59695 6.66667 4 6.06971 4 5.33333C4 4.59695 4.59695 4 5.33333 4C6.06971 4 6.66667 4.59695 6.66667 5.33333ZM6.66667 14.6667C6.66667 15.403 6.06971 16 5.33333 16C4.59695 16 4 15.403 4 14.6667C4 13.9303 4.59695 13.3333 5.33333 13.3333C6.06971 13.3333 6.66667 13.9303 6.66667 14.6667Z" stroke="#424242" stroke-linecap="round"/>
</svg>
