<svg width="20" height="20" viewBox="0 0 20 20" fill="none" xmlns="http://www.w3.org/2000/svg">
<path d="M14.2148 12.9342C14.6046 12.668 15.0619 12.5176 15.5336 12.5004C16.0053 12.4832 16.4723 12.5999 16.8805 12.837C17.2887 13.0741 17.6214 13.422 17.8401 13.8403C18.0588 14.2586 18.1546 14.7303 18.1165 15.2008C17.1166 15.5503 16.0546 15.6863 14.999 15.6C14.9957 14.6555 14.7237 13.7306 14.2148 12.935C13.7631 12.2265 13.1399 11.6434 12.403 11.2396C11.6661 10.8358 10.8392 10.6244 9.99897 10.625C9.15883 10.6246 8.33216 10.836 7.59541 11.2398C6.85866 11.6436 6.23564 12.2266 5.78397 12.935M14.9981 15.5992L14.999 15.625C14.999 15.8125 14.989 15.9975 14.9681 16.18C13.4559 17.0476 11.7424 17.5028 9.99897 17.5C8.19064 17.5 6.49314 17.02 5.0298 16.18C5.00838 15.9871 4.99808 15.7932 4.99897 15.5992M4.99897 15.5992C3.94366 15.6886 2.88223 15.5531 1.88314 15.2017C1.8451 14.7313 1.94097 14.2598 2.15966 13.8416C2.37836 13.4234 2.71094 13.0757 3.11897 12.8386C3.527 12.6015 3.9938 12.4847 4.4654 12.5018C4.937 12.5188 5.39415 12.669 5.78397 12.935M4.99897 15.5992C5.00196 14.6548 5.27532 13.7307 5.78397 12.935M12.499 5.625C12.499 6.28804 12.2356 6.92393 11.7667 7.39277C11.2979 7.86161 10.662 8.125 9.99897 8.125C9.33593 8.125 8.70004 7.86161 8.2312 7.39277C7.76236 6.92393 7.49897 6.28804 7.49897 5.625C7.49897 4.96196 7.76236 4.32607 8.2312 3.85723C8.70004 3.38839 9.33593 3.125 9.99897 3.125C10.662 3.125 11.2979 3.38839 11.7667 3.85723C12.2356 4.32607 12.499 4.96196 12.499 5.625ZM17.499 8.125C17.499 8.37123 17.4505 8.61505 17.3562 8.84253C17.262 9.07002 17.1239 9.27672 16.9498 9.45083C16.7757 9.62494 16.569 9.76305 16.3415 9.85727C16.114 9.9515 15.8702 10 15.624 10C15.3777 10 15.1339 9.9515 14.9064 9.85727C14.679 9.76305 14.4723 9.62494 14.2981 9.45083C14.124 9.27672 13.9859 9.07002 13.8917 8.84253C13.7975 8.61505 13.749 8.37123 13.749 8.125C13.749 7.62772 13.9465 7.15081 14.2981 6.79918C14.6498 6.44754 15.1267 6.25 15.624 6.25C16.1213 6.25 16.5982 6.44754 16.9498 6.79918C17.3014 7.15081 17.499 7.62772 17.499 8.125ZM6.24897 8.125C6.24897 8.37123 6.20047 8.61505 6.10624 8.84253C6.01202 9.07002 5.87391 9.27672 5.6998 9.45083C5.52569 9.62494 5.31899 9.76305 5.0915 9.85727C4.86402 9.9515 4.6202 10 4.37397 10C4.12774 10 3.88392 9.9515 3.65644 9.85727C3.42895 9.76305 3.22225 9.62494 3.04815 9.45083C2.87404 9.27672 2.73592 9.07002 2.6417 8.84253C2.54747 8.61505 2.49897 8.37123 2.49897 8.125C2.49897 7.62772 2.69651 7.15081 3.04815 6.79918C3.39978 6.44754 3.87669 6.25 4.37397 6.25C4.87125 6.25 5.34816 6.44754 5.6998 6.79918C6.05143 7.15081 6.24897 7.62772 6.24897 8.125Z" stroke="#424242" stroke-linecap="round" stroke-linejoin="round"/>
</svg>
