<svg width="20" height="20" viewBox="0 0 20 20" fill="none" xmlns="http://www.w3.org/2000/svg">
<path d="M13.9987 14.9998C14.9321 14.9998 15.3988 14.9998 15.7553 14.8182C16.069 14.6584 16.3239 14.4034 16.4837 14.0898C16.6654 13.7333 16.6654 13.2666 16.6654 12.3332V4.33317C16.6654 3.39975 16.6654 2.93304 16.4837 2.57652C16.3239 2.26292 16.069 2.00795 15.7553 1.84816C15.3988 1.6665 14.9321 1.6665 13.9987 1.6665H9.33203C8.39861 1.6665 7.9319 1.6665 7.57538 1.84816C7.26178 2.00795 7.00681 2.26292 6.84702 2.57652C6.66536 2.93304 6.66536 3.39975 6.66536 4.33317M5.9987 18.3332H10.6654C11.5988 18.3332 12.0655 18.3332 12.422 18.1515C12.7356 17.9917 12.9906 17.7368 13.1504 17.4232C13.332 17.0666 13.332 16.5999 13.332 15.6665V7.6665C13.332 6.73308 13.332 6.26637 13.1504 5.90985C12.9906 5.59625 12.7356 5.34128 12.422 5.18149C12.0655 4.99984 11.5988 4.99984 10.6654 4.99984H5.9987C5.06528 4.99984 4.59857 4.99984 4.24205 5.18149C3.92844 5.34128 3.67348 5.59625 3.51369 5.90985C3.33203 6.26637 3.33203 6.73308 3.33203 7.6665V15.6665C3.33203 16.5999 3.33203 17.0666 3.51369 17.4232C3.67348 17.7368 3.92844 17.9917 4.24205 18.1515C4.59857 18.3332 5.06528 18.3332 5.9987 18.3332Z" stroke="#424242"/>
</svg>
