<svg width="14" height="18" viewBox="0 0 14 18" fill="none" xmlns="http://www.w3.org/2000/svg">
<path d="M6.08464 7.33333C6.08464 6.91912 5.74885 6.58333 5.33464 6.58333C4.92042 6.58333 4.58464 6.91912 4.58464 7.33333H6.08464ZM4.58464 14C4.58464 14.4142 4.92042 14.75 5.33464 14.75C5.74885 14.75 6.08464 14.4142 6.08464 14H4.58464ZM9.41797 7.33333C9.41797 6.91912 9.08218 6.58333 8.66797 6.58333C8.25376 6.58333 7.91797 6.91912 7.91797 7.33333H9.41797ZM7.91797 14C7.91797 14.4142 8.25376 14.75 8.66797 14.75C9.08218 14.75 9.41797 14.4142 9.41797 14H7.91797ZM2.91132 16.3183L3.25181 15.6501H3.25181L2.91132 16.3183ZM2.18296 15.59L2.85121 15.2495H2.85121L2.18296 15.59ZM11.8196 15.59L11.1514 15.2495L11.8196 15.59ZM11.0913 16.3183L10.7508 15.6501L10.7508 15.6501L11.0913 16.3183ZM1.16797 4.08333C0.753755 4.08333 0.417969 4.41912 0.417969 4.83333C0.417969 5.24755 0.753755 5.58333 1.16797 5.58333V4.08333ZM12.8346 5.58333C13.2488 5.58333 13.5846 5.24755 13.5846 4.83333C13.5846 4.41912 13.2488 4.08333 12.8346 4.08333V5.58333ZM3.33464 4.83333C3.33464 5.24755 3.67042 5.58333 4.08464 5.58333C4.49885 5.58333 4.83464 5.24755 4.83464 4.83333H3.33464ZM9.16797 4.83333C9.16797 5.24755 9.50376 5.58333 9.91797 5.58333C10.3322 5.58333 10.668 5.24755 10.668 4.83333H9.16797ZM4.58464 7.33333V14H6.08464V7.33333H4.58464ZM7.91797 7.33333V14H9.41797V7.33333H7.91797ZM11.2513 4.83333V13.8333H12.7513V4.83333H11.2513ZM9.33464 15.75H4.66797V17.25H9.33464V15.75ZM1.2513 4.83333V13.8333H2.7513V4.83333H1.2513ZM4.66797 15.75C4.18888 15.75 3.87467 15.7494 3.63438 15.7298C3.40284 15.7109 3.30672 15.6781 3.25181 15.6501L2.57083 16.9866C2.87244 17.1403 3.18793 17.1983 3.51223 17.2248C3.82778 17.2506 4.21363 17.25 4.66797 17.25V15.75ZM1.2513 13.8333C1.2513 14.2877 1.25072 14.6735 1.2765 14.9891C1.303 15.3134 1.36102 15.6289 1.5147 15.9305L2.85121 15.2495C2.82324 15.1946 2.79044 15.0985 2.77152 14.8669C2.75189 14.6266 2.7513 14.3124 2.7513 13.8333H1.2513ZM3.25181 15.6501C3.07933 15.5622 2.9391 15.422 2.85121 15.2495L1.5147 15.9305C1.7464 16.3852 2.1161 16.7549 2.57083 16.9866L3.25181 15.6501ZM11.2513 13.8333C11.2513 14.3124 11.2507 14.6266 11.2311 14.8669C11.2122 15.0985 11.1794 15.1946 11.1514 15.2495L12.4879 15.9305C12.6416 15.6289 12.6996 15.3134 12.7261 14.9891C12.7519 14.6735 12.7513 14.2877 12.7513 13.8333H11.2513ZM9.33464 17.25C9.78897 17.25 10.1748 17.2506 10.4904 17.2248C10.8147 17.1983 11.1302 17.1403 11.4318 16.9866L10.7508 15.6501C10.6959 15.6781 10.5998 15.7109 10.3682 15.7298C10.1279 15.7494 9.81372 15.75 9.33464 15.75V17.25ZM11.1514 15.2495C11.0635 15.422 10.9233 15.5622 10.7508 15.6501L11.4318 16.9866C11.8865 16.7549 12.2562 16.3852 12.4879 15.9305L11.1514 15.2495ZM1.16797 5.58333H2.0013V4.08333H1.16797V5.58333ZM2.0013 5.58333H12.0013V4.08333H2.0013V5.58333ZM12.0013 5.58333H12.8346V4.08333H12.0013V5.58333ZM4.83464 4.16667C4.83464 3.16996 5.74001 2.25 7.0013 2.25V0.75C5.04093 0.75 3.33464 2.21785 3.33464 4.16667H4.83464ZM7.0013 2.25C8.26259 2.25 9.16797 3.16996 9.16797 4.16667H10.668C10.668 2.21785 8.96167 0.75 7.0013 0.75V2.25ZM3.33464 4.16667V4.83333H4.83464V4.16667H3.33464ZM9.16797 4.16667V4.83333H10.668V4.16667H9.16797Z" fill="#E46962"/>
</svg>
