<svg width="52" height="52" viewBox="0 0 52 52" fill="none" xmlns="http://www.w3.org/2000/svg">
<path d="M43.3307 27.083V14.733C43.3307 11.0927 43.3307 9.2725 42.6223 7.88207C41.9991 6.65902 41.0047 5.66464 39.7817 5.04147C38.3912 4.33301 36.5711 4.33301 32.9307 4.33301H19.0641C15.4237 4.33301 13.6036 4.33301 12.2131 5.04147C10.9901 5.66464 9.9957 6.65902 9.37252 7.88207C8.66406 9.2725 8.66406 11.0927 8.66406 14.733V37.2663C8.66406 40.9067 8.66406 42.7268 9.37252 44.1173C9.9957 45.3403 10.9901 46.3347 12.2131 46.9579C13.6036 47.6663 15.4236 47.6663 19.0638 47.6663H27.0807M30.3307 23.833H17.3307M21.6641 32.4997H17.3307M34.6641 15.1663H17.3307M32.4974 41.1663L38.9974 47.6663M38.9974 47.6663L45.4974 41.1663M38.9974 47.6663V34.6663" stroke="#040404" stroke-width="3" stroke-linecap="round" stroke-linejoin="round"/>
</svg>
