<svg width="64" height="64" viewBox="0 0 64 64" fill="none" xmlns="http://www.w3.org/2000/svg">
<path d="M42.6673 9.24736C46.6186 11.211 49.334 15.2884 49.334 20C49.334 24.7116 46.6186 28.789 42.6673 30.7526M48.0007 44.7104C52.0312 46.5342 55.6607 49.5066 58.6673 53.3333M5.33398 53.3333C10.5246 46.7269 17.5718 42.6667 25.334 42.6667C33.0962 42.6667 40.1433 46.7269 45.334 53.3333M37.334 20C37.334 26.6274 31.9614 32 25.334 32C18.7066 32 13.334 26.6274 13.334 20C13.334 13.3726 18.7066 8 25.334 8C31.9614 8 37.334 13.3726 37.334 20Z" stroke="#2B2B2B" stroke-width="4" stroke-linecap="round" stroke-linejoin="round"/>
</svg>
